PathFileType	3	(X/Y/Z)	random_1__view2_aligned.trc
DataRate	CameraRate	NumFrames	NumMarkers	Units	OrigDataRate	OrigDataStartFrame	OrigNumFrames
100.0	100.0	7	19	mm	100.0	1073	1930
Frame#	Time	pelvis			neck			head			hip_left			hip_right			knee_left			knee_right			ankle_left			ankle_right			heel_left			heel_right			toe_left			toe_right			shoulder_left			shoulder_right			elbow_left			elbow_right			wrist_left			wrist_right			
		X1	Y1	Z1	X2	Y2	Z2	X3	Y3	Z3	X4	Y4	Z4	X5	Y5	Z5	X6	Y6	Z6	X7	Y7	Z7	X8	Y8	Z8	X9	Y9	Z9	X10	Y10	Z10	X11	Y11	Z11	X12	Y12	Z12	X13	Y13	Z13	X14	Y14	Z14	X15	Y15	Z15	X16	Y16	Z16	X17	Y17	Z17	X18	Y18	Z18	X19	Y19	Z19	
1073	10.72000	189.291040	932.866437	142.095079	357.805514	1440.467464	131.236589	503.634569	1465.361571	143.730021	187.005591	929.992401	64.965436	191.576024	935.740542	219.224642	256.773364	500.898303	25.783644	294.668500	512.418512	229.964503	167.340066	101.540497	23.131395	223.927202	108.452093	245.874079	129.422117	57.080717	25.123387	186.960095	63.020556	252.222452	336.221407	21.828460	26.642492	394.359080	30.994202	195.835507	331.946834	1431.326434	-36.573670	302.340230	1438.252237	288.122812	221.078451	1274.035742	4.807886	89.207398	1323.277719	253.027716	137.365539	1192.758304	128.467676	-17.137341	1199.248506	135.527575
1074	10.73000	191.540146	932.847309	140.770543	358.610851	1440.446565	131.837253	503.414462	1465.603068	147.394478	190.501111	929.882301	63.408415	192.578717	935.812380	218.132589	259.735106	500.270952	26.800751	294.061862	512.137511	230.931511	170.571955	100.898301	22.010642	223.868580	108.173190	246.138706	132.420681	56.527554	23.217643	186.874960	62.738113	252.068485	340.120784	20.448707	30.096545	394.695311	30.628115	197.922519	334.429113	1431.293020	-36.092421	301.908294	1438.702734	287.613661	222.301080	1273.082033	1.010970	92.407197	1321.541195	250.412607	142.596771	1190.636588	123.697372	-8.037636	1200.345320	130.384402
1075	10.74000	193.789252	932.828181	139.446007	359.416187	1440.425666	132.437917	503.194356	1465.844565	151.058935	193.996631	929.772200	61.851394	193.581409	935.884218	217.040536	262.696848	499.643601	27.817859	293.455223	511.856510	231.898520	173.803845	100.256105	20.889890	223.809958	107.894286	246.403333	135.419245	55.974391	21.311900	186.789825	62.455671	251.914517	344.020162	19.068954	33.550598	395.031542	30.262028	200.009531	336.911391	1431.259606	-35.611172	301.476358	1439.153232	287.104509	223.523708	1272.128325	-2.785945	95.606996	1319.804670	247.797498	147.828002	1188.514872	118.927068	1.062068	1201.442135	125.241230
1076	10.75000	196.038359	932.809053	138.121472	360.221524	1440.404767	133.038581	502.974249	1466.086062	154.723391	197.492151	929.662100	60.294373	194.584101	935.956056	215.948483	265.658589	499.016250	28.834966	292.848585	511.575510	232.865528	177.035734	99.613909	19.769137	223.751336	107.615382	246.667960	138.417809	55.421228	19.406157	186.704690	62.173228	251.760549	347.919539	17.689202	37.004651	395.367773	29.895941	202.096543	339.393670	1431.226192	-35.129923	301.044422	1439.603729	286.595358	224.746337	1271.174616	-6.582860	98.806795	1318.068145	245.182389	153.059233	1186.393156	114.156764	10.161773	1202.538950	120.098058
1077	10.76000	198.287465	932.789925	136.796936	361.026861	1440.383869	133.639246	502.754143	1466.327559	158.387848	200.987670	929.552000	58.737352	195.586794	936.027894	214.856430	268.620331	498.388899	29.852073	292.241947	511.294509	233.832537	180.267624	98.971713	18.648384	223.692713	107.336478	246.932587	141.416374	54.868065	17.500414	186.619556	61.890785	251.606581	351.818916	16.309449	40.458704	395.704004	29.529854	204.183555	341.875948	1431.192778	-34.648675	300.612487	1440.054226	286.086207	225.968965	1270.220908	-10.379775	102.006594	1316.331621	242.567280	158.290464	1184.271440	109.386459	19.261477	1203.635765	114.954885
1078	10.77000	200.536571	932.770797	135.472400	361.832198	1440.362970	134.239910	502.534036	1466.569056	162.052305	204.483190	929.441899	57.180332	196.589486	936.099732	213.764377	271.582072	497.761548	30.869180	291.635308	511.013508	234.799545	183.499513	98.329517	17.527631	223.634091	107.057575	247.197214	144.414938	54.314902	15.594671	186.534421	61.608343	251.452614	355.718293	14.929697	43.912757	396.040235	29.163767	206.270567	344.358226	1431.159363	-34.167426	300.180551	1440.504724	285.577055	227.191594	1269.267199	-14.176691	105.206393	1314.595096	239.952171	163.521696	1182.149724	104.616155	28.361182	1204.732580	109.811713
1079	10.78000	201.388385	933.207989	134.016535	362.263804	1440.500322	133.182154	502.704585	1466.767498	163.413640	206.138512	929.773066	55.693482	196.637839	936.642946	212.339506	271.587988	497.708740	31.005210	289.885423	511.189613	235.064570	183.555966	98.345421	16.363986	222.561679	107.209349	247.289042	144.377098	54.424118	13.884197	185.466846	61.756802	251.316242	355.385784	14.334158	45.887872	395.149781	29.205774	207.302607	345.081887	1431.423883	-34.977024	300.566540	1440.926697	283.539459	224.304082	1271.631555	-18.537892	109.387546	1312.261821	237.431669	162.736081	1181.316013	98.862659	37.995011	1203.454529	106.020339
